<svg xmlns="http://www.w3.org/2000/svg" xmlns:xlink="http://www.w3.org/1999/xlink" viewBox="0,0,256,256" fill-rule="nonzero"><g fill="#448aff" fill-rule="nonzero" stroke="none" stroke-width="1" stroke-linecap="butt" stroke-linejoin="miter" stroke-miterlimit="10" stroke-dasharray="" stroke-dashoffset="0" font-family="none" font-weight="none" font-size="none" text-anchor="none" style="mix-blend-mode: normal"><path d="M128,230.4c-56.55396,0 -102.4,-45.84604 -102.4,-102.4v0c0,-56.55396 45.84604,-102.4 102.4,-102.4v0c56.55396,0 102.4,45.84604 102.4,102.4v0c0,56.55396 -45.84604,102.4 -102.4,102.4z" id="shape"></path></g><g fill="none" fill-rule="nonzero" stroke="none" stroke-width="1" stroke-linecap="butt" stroke-linejoin="miter" stroke-miterlimit="10" stroke-dasharray="" stroke-dashoffset="0" font-family="none" font-weight="none" font-size="none" text-anchor="none" style="mix-blend-mode: normal"><g transform="scale(5.33333,5.33333)"><path d="M24,4c-10.5,0 -19,8.1 -19,18c0,5.2 2.3,9.8 6,13.1v8.9l7.8,-4.7c1.6,0.4 3.4,0.7 5.2,0.7c10.5,0 19,-8.1 19,-18c0,-9.9 -8.5,-18 -19,-18z" fill-opacity="0" fill="#448aff"></path><path d="M12,28l10,-11l5,5l9,-5l-10,11l-5,-5z" fill="#ffffff"></path></g></g></svg>