<svg width="100" height="29" viewBox="0 0 100 29" fill="none" xmlns="http://www.w3.org/2000/svg">
<path d="M71.5235 28.0909C76.015 28.098 80.3908 26.6655 84.0106 24.003C84.1513 23.8984 84.2699 23.7668 84.3595 23.6159C84.449 23.465 84.5077 23.2978 84.5322 23.124C84.5567 22.9502 84.5464 22.7732 84.5021 22.6034C84.4577 22.4336 84.3801 22.2743 84.2737 22.1348C84.1684 21.9976 84.0369 21.8829 83.8868 21.7972C83.7367 21.7116 83.5711 21.6567 83.3996 21.6359C83.2281 21.6151 83.0541 21.6287 82.888 21.676C82.7218 21.7233 82.5667 21.8032 82.4317 21.9112C78.9573 24.6941 74.6412 26.2116 70.1919 26.2146C67.5342 26.214 64.904 25.6754 62.4595 24.6313C60.0149 23.5872 57.8064 22.0591 55.9665 20.1388C55.902 20.0657 55.8112 20.0213 55.714 20.0153C55.6168 20.0094 55.5212 20.0423 55.4482 20.1069C55.3752 20.1714 55.3309 20.2624 55.3249 20.3597C55.3189 20.457 55.3518 20.5528 55.4163 20.6258C57.3882 22.9707 59.8494 24.8544 62.6268 26.1441C65.4042 27.4339 68.4301 28.0984 71.4916 28.0909" fill="#FFCE02"/>
<path d="M62.3477 16.7134C61.9274 16.7001 61.5139 16.6036 61.131 16.4296C60.748 16.2556 60.4032 16.0074 60.1164 15.6995C59.8296 15.3916 59.6065 15.0299 59.4598 14.6352C59.3131 14.2406 59.2459 13.8208 59.2619 13.4001C59.2313 12.9746 59.2887 12.5473 59.4303 12.145C59.572 11.7426 59.7949 11.3738 60.0852 11.0616C60.3755 10.7493 60.7269 10.5002 61.1175 10.3299C61.5081 10.1596 61.9297 10.0717 62.3557 10.0717C62.7818 10.0717 63.2033 10.1596 63.5939 10.3299C63.9845 10.5002 64.336 10.7493 64.6263 11.0616C64.9165 11.3738 65.1394 11.7426 65.2811 12.145C65.4227 12.5473 65.4801 12.9746 65.4496 13.4001C65.4656 13.8221 65.3977 14.2432 65.2501 14.6388C65.1024 15.0345 64.8779 15.3969 64.5894 15.705C64.3009 16.0132 63.9543 16.261 63.5695 16.4341C63.1847 16.6072 62.7694 16.7021 62.3477 16.7134V16.7134ZM62.3477 6.51786C61.4257 6.47248 60.5042 6.61821 59.641 6.94591C58.7779 7.2736 57.9915 7.77622 57.3313 8.42228C56.6711 9.06834 56.1512 9.84392 55.8043 10.7005C55.4573 11.557 55.2906 12.4761 55.3148 13.4001C55.3762 15.2235 56.1428 16.9517 57.4528 18.2199C58.7627 19.4881 60.5136 20.197 62.3358 20.197C64.1579 20.197 65.9088 19.4881 67.2188 18.2199C68.5288 16.9517 69.2954 15.2235 69.3567 13.4001C69.3795 12.4785 69.2128 11.5621 68.8668 10.7078C68.5208 9.85347 68.0031 9.07953 67.3458 8.43407C66.6884 7.78862 65.9055 7.28543 65.0457 6.95578C64.1859 6.62613 63.2675 6.47707 62.3477 6.51786" fill="#086D46"/>
<path d="M77.498 16.7135C77.077 16.7012 76.6626 16.6054 76.2787 16.4319C75.8949 16.2583 75.5491 16.0104 75.2615 15.7023C74.9739 15.3943 74.75 15.0322 74.6028 14.6371C74.4557 14.242 74.3881 13.8216 74.4041 13.4001C74.3736 12.9746 74.4309 12.5474 74.5726 12.1451C74.7142 11.7427 74.9372 11.3739 75.2274 11.0616C75.5177 10.7493 75.8691 10.5003 76.2597 10.33C76.6504 10.1597 77.0719 10.0718 77.498 10.0718C77.924 10.0718 78.3455 10.1597 78.7362 10.33C79.1268 10.5003 79.4782 10.7493 79.7685 11.0616C80.0588 11.3739 80.2817 11.7427 80.4233 12.1451C80.565 12.5474 80.6224 12.9746 80.5918 13.4001C80.6078 13.8216 80.5403 14.242 80.3931 14.6371C80.246 15.0322 80.0221 15.3943 79.7344 15.7023C79.4468 16.0104 79.1011 16.2583 78.7172 16.4319C78.3334 16.6054 77.919 16.7012 77.498 16.7135V16.7135ZM77.498 6.51794C73.3914 6.51794 70.457 9.40016 70.457 13.4001C70.457 15.2657 71.1972 17.0548 72.5146 18.3739C73.832 19.693 75.6189 20.4341 77.482 20.4341C79.3451 20.4341 81.132 19.693 82.4494 18.3739C83.7668 17.0548 84.507 15.2657 84.507 13.4001C84.5286 12.4789 84.361 11.563 84.0146 10.7092C83.6683 9.85547 83.1505 9.08202 82.4934 8.4368C81.8363 7.79158 81.0538 7.28835 80.1945 6.95828C79.3353 6.62821 78.4175 6.47833 77.498 6.51794" fill="#086D46"/>
<path d="M41.0977 18.2783C41.0977 18.742 41.2817 19.1868 41.6092 19.5147C41.9367 19.8426 42.3808 20.0268 42.8439 20.0268H45.0208V6.68555H41.0977V18.2783Z" fill="#086D46"/>
<path d="M40.7539 2.358C40.7523 2.81469 40.8861 3.26158 41.1384 3.64208C41.3907 4.02257 41.75 4.31956 42.171 4.49542C42.5919 4.67129 43.0555 4.71812 43.5031 4.62999C43.9506 4.54187 44.3619 4.32274 44.685 4.00037C45.0081 3.678 45.2284 3.26688 45.318 2.81907C45.4075 2.37127 45.3623 1.90693 45.1882 1.48484C45.014 1.06276 44.7186 0.701924 44.3395 0.448032C43.9603 0.194139 43.5145 0.0586103 43.0584 0.0586076C42.7561 0.0575568 42.4566 0.116257 42.1771 0.231342C41.8975 0.346426 41.6435 0.515632 41.4294 0.729255C41.2153 0.942878 41.0454 1.19672 40.9295 1.47621C40.8136 1.75571 40.7539 2.05537 40.7539 2.358" fill="#086D46"/>
<path d="M30.1761 6.6617V20.0189H29.0598C28.6825 20.0178 28.3134 19.909 27.9957 19.7054C27.678 19.5018 27.4247 19.2117 27.2657 18.8692C26.3472 19.5743 25.2326 19.976 24.0761 20.0189H23.4861C21.9532 19.9939 20.4678 19.4823 19.244 18.5579C17.9203 17.472 17.418 16.2265 17.418 13.8154V6.62976H21.3491C21.3491 6.62976 21.3491 13.7595 21.3491 13.9192C21.3849 14.5482 21.6596 15.1396 22.117 15.5723C22.5744 16.0049 23.1798 16.2459 23.809 16.2459C24.4382 16.2459 25.0436 16.0049 25.501 15.5723C25.9584 15.1396 26.2332 14.5482 26.2689 13.9192V13.8792C26.2689 13.7196 26.2689 6.58984 26.2689 6.58984L30.1761 6.6617Z" fill="#086D46"/>
<path d="M11.3149 12.3941H11.2591L5.19099 2.01492C4.88839 1.36984 4.39656 0.832446 3.78111 0.474405C3.16566 0.116365 2.45584 -0.0453116 1.74628 0.0109348H0V20.0348H3.92312V7.99493H3.97895C3.97895 7.99493 8.43635 15.6037 9.92746 18.1107C10.2298 18.7364 10.7112 19.258 11.3103 19.6092C11.9095 19.9603 12.5994 20.1252 13.2924 20.0827H15.1663V0.0109348H11.3149V12.3941Z" fill="#086D46"/>
<path d="M92.6487 16.7134C92.2277 16.7011 91.8133 16.6054 91.4294 16.4318C91.0456 16.2582 90.6998 16.0103 90.4122 15.7022C90.1246 15.3942 89.9007 15.0321 89.7535 14.637C89.6064 14.2419 89.5388 13.8215 89.5548 13.4001C89.5335 12.9795 89.5978 12.559 89.7439 12.1641C89.8899 11.7692 90.1146 11.4081 90.4044 11.1029C90.6942 10.7977 91.0429 10.5546 91.4294 10.3886C91.8159 10.2225 92.2321 10.1369 92.6527 10.1369C93.0732 10.1369 93.4894 10.2225 93.8759 10.3886C94.2624 10.5546 94.6111 10.7977 94.9008 11.1029C95.1906 11.4081 95.4154 11.7692 95.5614 12.1641C95.7075 12.559 95.7718 12.9795 95.7505 13.4001C95.7665 13.8221 95.6987 14.2432 95.551 14.6388C95.4034 15.0345 95.1788 15.3968 94.8903 15.705C94.6018 16.0132 94.2552 16.261 93.8704 16.4341C93.4856 16.6071 93.0703 16.7021 92.6487 16.7134V16.7134ZM99.9128 2.34222C99.9128 1.72814 99.6692 1.13922 99.2356 0.705009C98.8019 0.270794 98.2137 0.0268555 97.6004 0.0268555H95.9419V8.57772C95.4928 7.91288 94.8809 7.37444 94.1648 7.01381C93.4486 6.65319 92.6521 6.48243 91.8513 6.51785C88.2391 6.51785 85.6875 9.27233 85.6875 13.2963C85.6875 17.3202 88.1833 20.2902 91.8513 20.2902C92.6703 20.3287 93.4854 20.1558 94.2185 19.7881C94.9515 19.4204 95.5779 18.8703 96.0375 18.1905C96.0774 18.6876 96.3016 19.1517 96.6662 19.4916C97.0307 19.8315 97.509 20.0224 98.0071 20.0268H100.001V10.933L99.9128 2.34222Z" fill="#086D46"/>
<path d="M36.5774 10.2782C37.0293 10.2813 37.4773 10.1948 37.8956 10.0236C38.314 9.85239 38.6942 9.59988 39.0145 9.28066C39.3348 8.96145 39.5888 8.58185 39.7617 8.1638C39.9346 7.74575 40.0231 7.29753 40.0221 6.84505V6.67738H36.3063V1.64746L33.1646 2.89296C32.9294 2.98589 32.7276 3.14752 32.5854 3.35684C32.4432 3.56615 32.3671 3.81346 32.3672 4.06661V14.9009C32.3672 16.9288 32.5107 17.5197 33.2443 18.4298C33.6654 18.9655 34.2071 19.3938 34.8252 19.6797C35.4434 19.9655 36.1203 20.1008 36.8007 20.0745C37.8833 20.0645 38.9584 19.8922 39.9902 19.5636V19.3879C39.9913 19.121 39.939 18.8567 39.8363 18.6104C39.7336 18.3641 39.5827 18.141 39.3924 17.9541C39.202 17.7673 38.9763 17.6206 38.7283 17.5226C38.4804 17.4247 38.2153 17.3775 37.9489 17.3839H37.8532C37.6542 17.4114 37.4516 17.3957 37.2591 17.338C37.0667 17.2803 36.8889 17.1818 36.7377 17.0494C36.5865 16.9169 36.4655 16.7535 36.3828 16.5702C36.3001 16.3868 36.2577 16.1879 36.2584 15.9867V10.2782H36.5774Z" fill="#086D46"/>
<path d="M51.1822 3.39585C51.1994 3.20485 51.2663 3.02171 51.3764 2.8648C51.4865 2.70789 51.6359 2.58272 51.8096 2.50184C51.9832 2.42097 52.1751 2.38723 52.3659 2.40401C52.5567 2.42079 52.7397 2.4875 52.8966 2.59745V2.59745C53.3194 2.98555 53.87 3.20437 54.4436 3.21222C55.3606 3.21222 55.9665 2.62938 56.5965 1.61542C55.4424 0.542589 53.9124 -0.0311963 52.3385 0.0186173C49.5875 0.0106334 47.1953 1.32001 47.1953 5.30402V20.0345H51.1184V10.2461H51.9796C52.4295 10.2472 52.8752 10.1593 53.2911 9.98769C53.7071 9.81603 54.0852 9.5639 54.4037 9.24575C54.7222 8.92759 54.9748 8.54965 55.1472 8.13357C55.3196 7.71749 55.4084 7.27145 55.4084 6.82098V6.67727H51.1264V3.64335C51.1222 3.56091 51.1222 3.47829 51.1264 3.39585" fill="#086D46"/>
</svg>
